External Loads File
version=1
nRows=70
nColumns=13
Range=5.000000e-03-10 seconds
endheader
time 	forceRightX 	forceRightY 	forceRightZ 	pointRightX 	pointRightY 	pointRightZ 	forceLeftX 	forceLeftY 	forceLeftZ 	pointLeftX 	pointLeftY 	pointLeftZ 		
7.505000 29.027175 213.856731 -0.000000 0.402810 0.435661 -0.168045 151.163275 115.518884 -0.000000 0.171189 0.163778 -0.411644
7.510000 39.798087 256.482094 -0.000000 0.407822 0.429486 -0.167614 121.506957 55.841217 -0.000000 0.165427 0.170807 -0.411498
7.515000 49.991621 302.221210 -0.000000 0.412473 0.422635 -0.167064 93.220058 1.014589 -0.000000 0.160016 0.178298 -0.411388
7.520000 58.996150 349.388291 -0.000000 0.416887 0.415076 -0.166749 66.845392 -48.565607 -0.000000 0.154941 0.186470 -0.411079
7.525000 66.341430 396.119135 -0.000000 0.421123 0.406865 -0.166643 42.336440 -92.386722 -0.000000 0.150152 0.195483 -0.410497
7.530000 70.582404 440.778412 -0.000000 0.425131 0.398292 -0.166787 19.649323 -129.611450 -0.000000 0.146022 0.204845 -0.410049
7.535000 71.221347 481.786298 -0.000000 0.428865 0.388927 -0.166954 -1.242257 -159.377288 -0.000000 0.142719 0.214072 -0.410149
7.540000 67.791570 517.877022 -0.000000 0.432254 0.379091 -0.167028 -19.914887 -180.945016 -0.000000 0.140160 0.222960 -0.410315
7.545000 61.256110 548.015048 -0.000000 0.435098 0.369134 -0.167013 -35.913765 -194.124108 -0.000000 0.138082 0.232128 -0.410403
7.550000 52.126713 571.797686 -0.000000 0.437326 0.358894 -0.166853 -48.335741 -199.498195 -0.000000 0.136429 0.241217 -0.410509
7.555000 42.791790 589.318549 -0.000000 0.439349 0.348352 -0.167138 -56.967855 -198.151080 -0.000000 0.135209 0.250933 -0.410597
7.560000 33.399098 601.497194 -0.000000 0.440764 0.337503 -0.167196 -61.150293 -191.721049 -0.000000 0.134373 0.260968 -0.410573
7.565000 24.041247 609.585970 -0.000000 0.441789 0.326654 -0.167282 -60.734451 -181.916906 -0.000000 0.133921 0.271209 -0.410492
7.570000 16.232177 614.909236 -0.000000 0.442109 0.315521 -0.167042 -56.456043 -170.068623 -0.000000 0.133966 0.281854 -0.410376
7.575000 9.390998 618.799418 -0.000000 0.441665 0.304412 -0.167168 -48.739205 -157.348635 -0.000000 0.134474 0.292504 -0.410182
7.580000 4.096780 622.289255 -0.000000 0.441192 0.293338 -0.168418 -38.517009 -144.434000 -0.000000 0.135542 0.303130 -0.409952
7.585000 1.611664 626.101418 -0.000000 0.439754 0.282094 -0.168319 -26.847966 -131.693327 -0.000000 0.137230 0.313833 -0.409833
7.590000 1.079821 630.669177 -0.000000 0.437598 0.271134 -0.168643 -14.223974 -119.440382 -0.000000 0.139520 0.324376 -0.409730
7.595000 2.862626 636.163105 -0.000000 0.434776 0.260406 -0.168564 -1.316494 -107.775158 -0.000000 0.142452 0.334665 -0.409917
7.600000 8.289467 642.562434 -0.000000 0.431296 0.249957 -0.168789 11.204055 -96.747715 -0.000000 0.145878 0.345307 -0.409880
7.605000 15.672888 649.776741 -0.000000 0.427101 0.239465 -0.168725 23.264093 -86.363102 -0.000000 0.149905 0.355083 -0.409963
7.610000 25.553815 657.696548 -0.000000 0.422418 0.229644 -0.168695 34.503353 -76.625705 -0.000000 0.154584 0.365035 -0.410081
7.615000 37.738723 666.251942 -0.000000 0.417070 0.219953 -0.168578 44.763667 -67.575631 -0.000000 0.159741 0.374618 -0.410406
7.620000 52.348283 675.362054 -0.000000 0.411104 0.210583 -0.168448 53.878767 -59.340117 -0.000000 0.165451 0.384140 -0.410752
7.625000 68.419029 684.986274 -0.000000 0.404554 0.201661 -0.168324 61.737557 -52.003941 -0.000000 0.171638 0.393360 -0.410927
7.630000 86.054533 694.982081 -0.000000 0.397432 0.193042 -0.168214 68.093196 -45.747533 -0.000000 0.178356 0.402205 -0.410839
7.635000 104.609700 705.269250 -0.000000 0.389871 0.184702 -0.168069 72.747515 -40.684487 -0.000000 0.185570 0.410474 -0.410590
7.640000 124.370202 715.594775 -0.000000 0.381771 0.176872 -0.167604 75.443002 -36.965944 -0.000000 0.193291 0.418468 -0.410373
7.645000 144.340342 725.821307 -0.000000 0.373376 0.169503 -0.167197 76.044482 -34.507536 -0.000000 0.201526 0.425824 -0.410273
7.650000 163.794279 735.743769 -0.000000 0.364647 0.162719 -0.166907 74.504877 -33.147280 -0.000000 0.210130 0.432316 -0.410033
7.655000 183.989385 744.606876 -0.000000 0.355687 0.156253 -0.166667 70.818950 -32.854382 -0.000000 0.219455 0.438301 -0.410352
7.660000 202.740312 752.279880 -0.000000 0.346607 0.150283 -0.166317 65.247264 -33.227803 -0.000000 0.228781 0.443782 -0.409477
7.665000 221.135540 757.674399 -0.000000 0.337252 0.144835 -0.165461 57.976084 -34.146407 -0.000000 0.238514 0.448548 -0.409382
7.670000 238.104876 760.125692 -0.000000 0.327835 0.140139 -0.165249 49.331889 -35.215055 -0.000000 0.248505 0.452539 -0.409476
7.675000 253.072298 758.807430 -0.000000 0.318448 0.136016 -0.165063 39.666744 -36.025073 -0.000000 0.258485 0.455955 -0.409845
7.680000 267.048381 752.365446 -0.000000 0.308863 0.132581 -0.164742 29.285654 -36.188749 -0.000000 0.268792 0.458536 -0.409972
7.685000 279.326176 740.081601 -0.000000 0.299236 0.129760 -0.164323 18.556604 -35.147400 -0.000000 0.279279 0.460570 -0.410154
7.690000 289.341083 721.435791 -0.000000 0.289598 0.127827 -0.163896 7.799927 -32.351669 -0.000000 0.289839 0.461845 -0.410351
7.695000 297.233075 695.990277 -0.000000 0.279896 0.126379 -0.163335 -2.718916 -27.338245 -0.000000 0.300567 0.462640 -0.410636
7.700000 302.205813 664.100533 -0.000000 0.270117 0.125785 -0.162795 -12.663417 -19.807600 -0.000000 0.311114 0.462816 -0.410850
7.705000 305.046731 625.752511 -0.000000 0.260116 0.125864 -0.162190 -21.673957 -9.713482 -0.000000 0.321785 0.462405 -0.410664
7.710000 304.464488 582.090478 -0.000000 0.250113 0.126764 -0.161593 -29.299162 2.637810 -0.000000 0.331952 0.461092 -0.410632
7.715000 301.157753 533.370218 -0.000000 0.239770 0.128477 -0.161766 -35.179890 16.773894 -0.000000 0.341867 0.459627 -0.410855
7.720000 293.108825 481.327744 -0.000000 0.230260 0.130945 -0.161544 -39.150136 31.981491 -0.000000 0.351100 0.457395 -0.411171
7.725000 281.591122 425.869591 -0.000000 0.221021 0.134235 -0.161415 -41.105569 47.877878 -0.000000 0.359971 0.454706 -0.411477
7.730000 266.152886 367.960998 -0.000000 0.212204 0.138126 -0.161779 -41.132554 64.291129 -0.000000 0.368336 0.451628 -0.411813
7.735000 247.254498 308.177035 -0.000000 0.203612 0.142781 -0.162005 -39.345505 81.549221 -0.000000 0.376040 0.447852 -0.412249
7.740000 224.840037 247.745032 -0.000000 0.195619 0.148095 -0.162200 -36.080619 100.315958 -0.000000 0.383101 0.443527 -0.412681
7.745000 199.316676 187.845971 -0.000000 0.188103 0.153559 -0.162133 -31.806682 121.556421 -0.000000 0.389450 0.438884 -0.413017
7.750000 171.914771 128.919397 -0.000000 0.181092 0.159555 -0.161980 -26.626667 146.396793 -0.000000 0.395348 0.433058 -0.413477
7.755000 142.927598 72.443611 -0.000000 0.174538 0.166068 -0.162078 -21.409609 175.604667 -0.000000 0.400494 0.427494 -0.413813
7.760000 113.412535 18.896176 -0.000000 0.168355 0.173446 -0.162266 -16.275198 209.761005 -0.000000 0.404949 0.421388 -0.414132
7.765000 83.898439 -30.604867 -0.000000 0.162641 0.181205 -0.162567 -11.903283 248.905515 -0.000000 0.408800 0.414873 -0.414469
7.770000 54.901730 -75.026302 -0.000000 0.157651 0.189148 -0.162636 -8.759138 292.580914 -0.000000 0.412350 0.407718 -0.414781
7.775000 26.791219 -113.235503 -0.000000 0.153357 0.197547 -0.162936 -7.010209 339.758618 -0.000000 0.415528 0.399798 -0.414907
7.780000 0.154638 -144.070129 -0.000000 0.149497 0.205806 -0.163284 -7.142157 388.840098 -0.000000 0.418663 0.391339 -0.415303
7.785000 -24.388591 -166.742456 -0.000000 0.145868 0.214428 -0.163724 -8.943268 437.849697 -0.000000 0.421226 0.382276 -0.415241
7.790000 -45.946271 -180.999611 -0.000000 0.142808 0.223396 -0.164103 -12.385166 484.725489 -0.000000 0.423494 0.372768 -0.415415
7.795000 -63.494730 -187.256719 -0.000000 0.140238 0.232564 -0.164461 -17.666697 527.653190 -0.000000 0.425609 0.363146 -0.415251
7.800000 -76.569941 -186.319689 -0.000000 0.138122 0.242109 -0.164984 -23.771746 565.373009 -0.000000 0.427300 0.353035 -0.415213
7.805000 -84.647322 -179.440941 -0.000000 0.136443 0.251973 -0.165201 -30.446835 597.230745 -0.000000 0.428630 0.342628 -0.415173
7.810000 -87.439020 -168.148342 -0.000000 0.135195 0.261950 -0.165334 -37.830082 623.109001 -0.000000 0.429713 0.332125 -0.414969
7.815000 -85.376092 -153.855041 -0.000000 0.134407 0.272268 -0.165397 -44.935286 643.402935 -0.000000 0.430390 0.321447 -0.414530
7.820000 -79.025562 -137.986743 -0.000000 0.134256 0.282706 -0.165366 -51.598689 658.819329 -0.000000 0.430559 0.310547 -0.415197
7.825000 -69.239740 -121.733868 -0.000000 0.134465 0.293279 -0.165531 -57.868684 670.297856 -0.000000 0.430149 0.299734 -0.414775
7.830000 -57.159622 -105.865231 -0.000000 0.135505 0.303937 -0.165376 -63.086971 678.989381 -0.000000 0.429255 0.288873 -0.414882
7.835000 -43.798242 -90.898423 -0.000000 0.136949 0.314682 -0.165515 -67.055174 686.034913 -0.000000 0.427863 0.278117 -0.414620
7.840000 -30.067774 -77.103192 -0.000000 0.138897 0.325352 -0.165609 -69.375231 692.454482 -0.000000 0.425799 0.267381 -0.414654
7.845000 -16.665538 -64.592741 -0.000000 0.141538 0.335883 -0.165869 -69.938190 698.970864 -0.000000 0.423190 0.256834 -0.414519
7.850000 -4.173117 -53.364295 -0.000000 0.144829 0.346428 -0.166013 -67.694680 706.103723 -0.000000 0.420038 0.246398 -0.414420
